<svg xmlns="http://www.w3.org/2000/svg" width="256" height="256" fill="#40C351" viewBox="0 0 256 256"><path d="M128,24A104,104,0,1,0,232,128,104.12,104.12,0,0,0,128,24Zm41.48,152.45a20.36,20.36,0,0,1-12,5.55,31.74,31.74,0,0,1-13.39-3.33,76,76,0,0,1-41-45.17A43.3,43.3,0,0,1,96.3,101.9a3.89,3.89,0,0,1,2.84-2.22,23.68,23.68,0,0,1,2.49-.15,4.72,4.72,0,0,1,3.63,1.62,11.53,11.53,0,0,1,2.83,6.83c.12,2.72-.42,5.53-.94,7.63a40.75,40.75,0,0,1-4.1,8.44,22.34,22.34,0,0,0,8.1,14.68,23.41,23.41,0,0,0,15.11,7.24,12.44,12.44,0,0,0,7.91-2.1,6.13,6.13,0,0,1,7.43.36,28.8,28.8,0,0,1,6.58,6.11A19.33,19.33,0,0,1,169.48,176.45Z"></path></svg>
